<?xml version="1.0" standalone="no"?>
<!DOCTYPE svg PUBLIC "-//W3C//DTD SVG 20010904//EN"
 "http://www.w3.org/TR/2001/REC-SVG-20010904/DTD/svg10.dtd">
<svg version="1.0" xmlns="http://www.w3.org/2000/svg"
 width="800.000000pt" height="450.000000pt" viewBox="0 0 800.000000 450.000000"
 preserveAspectRatio="xMidYMid meet">

<g transform="translate(0.000000,450.000000) scale(0.100000,-0.100000)"
fill="#000000" stroke="none">
<path d="M0 2250 l0 -2250 865 0 c684 0 866 3 869 13 48 172 94 315 114 355
34 66 92 139 115 145 15 5 17 20 17 133 0 269 68 396 270 507 77 42 125 77
303 226 48 40 75 54 154 77 97 28 193 79 269 140 54 45 103 64 161 64 56 0 95
-9 88 -20 -6 -9 64 -24 73 -16 3 3 -2 6 -11 6 -9 0 -19 5 -23 11 -4 7 5 10 27
8 19 -1 43 0 54 3 11 3 55 14 98 24 42 9 82 23 88 30 6 7 17 82 25 166 7 84
20 177 27 206 l14 52 -38 0 c-29 0 -47 8 -71 29 l-33 29 -5 259 c-3 142 -7
246 -8 231 -1 -16 -4 -28 -6 -28 -3 0 -73 16 -156 35 -94 22 -177 35 -219 35
-68 0 -68 0 -78 -32 -10 -34 -13 -32 -29 20 -2 8 -24 12 -64 12 -58 0 -60 -1
-60 -26 0 -22 -2 -25 -15 -14 -8 7 -15 18 -15 25 0 9 -21 14 -71 17 -66 3 -72
1 -80 -19 -11 -29 -17 -29 -28 0 -9 24 -10 24 -197 26 -104 1 -191 4 -193 7
-2 2 84 4 191 4 l195 0 8 43 c6 35 8 38 15 22 5 -11 9 -30 9 -42 1 -22 5 -23
75 -23 l73 0 7 39 c9 57 26 62 26 7 l0 -46 59 0 c64 0 71 6 71 60 0 49 17 42
24 -10 7 -50 7 -50 44 -49 54 0 157 14 237 32 39 9 81 18 95 21 14 2 37 7 52
11 22 6 27 3 31 -17 3 -16 5 -13 6 12 0 20 11 48 25 64 20 26 32 31 92 37 38
5 93 8 121 8 46 1 53 4 58 24 12 45 202 103 302 92 94 -11 204 -55 218 -88 9
-20 20 -23 120 -29 122 -8 148 -20 176 -78 9 -18 18 -28 20 -22 3 9 30 5 94
-13 111 -31 126 -31 152 -2 39 40 56 102 50 174 -4 54 -15 86 -67 191 -35 68
-73 159 -86 200 l-23 75 31 -29 31 -29 -28 38 c-60 81 -244 211 -372 262 -457
185 -987 2 -1246 -428 -20 -32 -38 -53 -42 -48 -8 14 54 119 116 198 256 321
699 458 1098 339 42 -13 101 -33 131 -45 30 -12 48 -16 39 -9 -19 16 -80 133
-73 141 8 8 -120 48 -204 63 -103 18 -279 18 -388 -1 -337 -59 -624 -255 -808
-554 -24 -40 -47 -67 -51 -62 -3 6 -1 11 6 11 7 0 10 3 6 6 -20 21 125 226
227 321 231 216 501 323 820 323 119 0 269 -19 364 -46 9 -2 7 1 -5 7 -22 12
-97 142 -87 151 13 14 -96 30 -233 35 -117 4 -176 1 -255 -12 -420 -70 -781
-328 -981 -704 -51 -95 -74 -94 -26 1 104 206 267 392 457 521 145 98 356 182
532 213 103 17 303 22 414 10 63 -7 68 -6 54 8 -31 30 -98 187 -129 299 l-24
87 -2037 0 -2038 0 0 -2250z m4180 1163 c91 -43 143 -92 182 -171 32 -64 33
-70 33 -192 l0 -125 -60 0 -60 0 -2 117 c-2 130 -13 167 -66 219 -65 66 -188
96 -283 70 -55 -15 -117 -61 -151 -113 -26 -38 -28 -51 -33 -167 l-5 -126 -57
-3 c-55 -3 -58 -2 -64 24 -11 42 3 214 20 263 21 57 68 118 124 161 112 86
293 105 422 43z m-1445 -163 c3 -5 1 -10 -4 -10 -6 0 -11 5 -11 10 0 6 2 10 4
10 3 0 8 -4 11 -10z"/>
<path d="M4745 4490 c4 -6 30 -29 58 -51 86 -67 218 -192 232 -219 13 -27 19
-104 7 -96 -5 3 -16 -10 -26 -27 -9 -18 -44 -50 -77 -72 -34 -22 -81 -62 -106
-90 -25 -27 -50 -49 -54 -47 -19 5 -6 -9 49 -53 31 -25 102 -90 157 -143 55
-53 94 -90 88 -82 -15 17 -17 34 -3 25 8 -5 169 20 177 28 2 2 5 25 7 52 6 56
17 72 36 50 7 -8 18 -15 24 -15 6 0 24 -7 40 -15 16 -8 54 -22 85 -31 65 -19
122 -49 136 -73 15 -25 16 -52 4 -67 -22 -27 -138 -11 -217 30 -39 20 -157 23
-145 4 4 -7 6 -20 5 -30 -2 -9 2 -19 8 -23 5 -3 10 -15 10 -25 0 -28 206 -237
268 -272 61 -35 69 -48 78 -119 6 -57 5 -59 -72 -152 -24 -29 -54 -81 -54 -93
0 -25 75 -89 108 -92 18 -2 64 -15 102 -28 68 -24 200 -33 255 -18 13 3 31 28
49 66 27 61 28 63 20 197 -3 75 -7 147 -9 160 -6 76 33 180 80 213 5 4 18 13
29 20 10 7 24 18 30 23 20 17 50 35 69 41 9 4 17 10 17 14 0 5 9 6 20 3 11 -3
20 -1 20 5 0 6 16 14 35 18 19 3 35 10 35 15 0 5 7 6 15 3 8 -4 15 -2 15 4 0
6 21 18 48 28 26 10 53 22 60 27 13 10 173 17 167 7 -2 -3 12 -16 31 -30 18
-14 34 -30 34 -36 0 -10 19 -23 40 -28 27 -7 57 -43 86 -102 30 -60 36 -84 39
-155 5 -100 54 -337 88 -429 23 -60 27 -65 58 -70 l34 -6 -32 -8 c-30 -7 -32
-11 -39 -64 -11 -80 -9 -112 10 -232 35 -211 37 -272 21 -530 -12 -183 -27
-261 -75 -380 -21 -52 -54 -142 -73 -200 -19 -58 -44 -131 -55 -163 -12 -32
-24 -92 -28 -135 -8 -108 -83 -413 -139 -565 -51 -140 -90 -214 -118 -223 -33
-11 -92 -12 -98 -2 -8 13 0 136 12 182 18 66 10 264 -12 291 -4 6 -12 70 -18
143 l-10 132 -60 88 c-34 49 -61 97 -61 106 0 10 9 52 19 94 26 104 36 223 22
251 -7 12 -17 77 -22 144 -11 129 -12 132 -56 242 -26 66 -28 78 -28 230 0
154 -1 165 -38 300 -40 147 -58 177 -133 231 -67 48 -89 54 -202 54 l-110 0
-48 -44 c-69 -61 -98 -73 -183 -74 -40 0 -78 -5 -84 -11 -5 -5 -15 -8 -21 -5
-7 3 -18 -31 -30 -93 -30 -160 -100 -342 -174 -457 -91 -141 -240 -303 -362
-393 -83 -61 -217 -136 -230 -128 -7 4 15 22 52 44 165 97 328 236 425 365
102 137 189 315 228 471 24 96 41 216 26 179 -10 -24 -70 -41 -81 -24 -4 6
-14 8 -23 4 -12 -4 -17 -1 -18 12 0 11 -13 -29 -29 -88 -81 -302 -237 -532
-475 -700 -95 -67 -182 -111 -191 -96 -4 7 -3 8 4 4 7 -4 12 -2 12 4 0 6 5 8
10 5 6 -3 10 -2 10 3 0 5 33 29 73 54 228 145 394 353 479 602 40 116 48 167
25 148 -9 -8 -22 -6 -45 5 -26 12 -32 22 -33 47 0 20 -9 0 -25 -59 -65 -237
-224 -466 -413 -594 -84 -57 -119 -73 -127 -59 -4 7 -3 8 4 4 7 -4 12 -3 12 2
0 5 30 29 68 54 186 126 326 309 396 520 24 72 45 204 29 181 -6 -8 -23 2 -58
33 -76 67 -95 70 -221 38 -81 -21 -108 -24 -114 -15 -14 24 -20 -50 -20 -258
0 -222 -3 -232 -57 -260 -15 -7 -134 -11 -370 -12 -259 0 -342 -3 -325 -11 23
-12 22 -39 -3 -64 -6 -7 -17 -27 -24 -46 -7 -18 -19 -45 -27 -61 -9 -15 -12
-31 -9 -37 4 -6 -1 -7 -12 -4 -12 4 -10 0 7 -15 14 -11 21 -21 16 -21 -5 0 -3
-7 4 -15 8 -9 10 -28 6 -50 -6 -31 -4 -36 19 -45 30 -11 33 -30 5 -37 -18 -5
-25 -15 -17 -27 1 -2 -5 -12 -14 -22 -25 -29 -28 -47 -12 -66 14 -15 13 -18
-13 -24 -31 -8 -54 -26 -54 -43 0 -6 -7 -11 -15 -11 -7 0 -18 -7 -23 -16 -24
-43 -132 24 -132 81 0 32 -13 38 -32 15 -11 -12 -24 -17 -39 -13 -15 4 -20 2
-15 -5 8 -13 -52 15 -78 37 -18 15 -19 15 -13 -2 4 -9 2 -17 -3 -17 -6 0 -10
5 -10 12 0 9 -3 9 -12 0 -7 -7 -35 -12 -62 -12 -56 0 -53 -17 4 -24 19 -3 40
-5 45 -6 6 -1 1 -5 -10 -10 -17 -7 -15 -9 13 -9 37 -1 96 -23 106 -40 5 -7 -4
-14 -23 -17 -29 -6 -30 -8 -14 -20 16 -12 15 -13 -12 -15 l-30 -1 33 -9 c17
-5 32 -14 32 -20 0 -6 -4 -7 -10 -4 -6 3 -7 -1 -4 -9 3 -9 10 -16 14 -16 4 0
10 -14 14 -31 3 -17 14 -47 23 -67 9 -20 17 -53 18 -74 0 -36 2 -38 27 -34 21
3 25 1 21 -11 -3 -8 -2 -18 4 -22 5 -3 20 -33 33 -66 20 -51 24 -79 25 -185 1
-69 -1 -149 -5 -177 -4 -34 -3 -54 4 -57 7 -3 7 -8 -2 -14 -7 -5 -10 -16 -7
-24 4 -9 2 -32 -3 -52 -7 -23 -7 -38 -1 -42 6 -4 4 -13 -6 -24 -9 -10 -14 -23
-11 -29 3 -5 -6 -19 -20 -30 l-27 -21 24 -1 c13 -1 30 -1 37 0 20 3 14 -17 -8
-24 -11 -4 -32 -17 -46 -30 -14 -13 -31 -22 -39 -19 -7 3 -15 -2 -18 -10 -4
-9 -13 -16 -22 -16 -8 0 -15 -5 -15 -11 0 -6 -9 -9 -20 -6 -10 3 -20 1 -22 -4
-2 -5 -15 -4 -30 3 -32 15 -47 47 -143 297 -74 194 -185 526 -185 554 0 27
-28 75 -50 87 -20 11 -30 -3 -10 -15 5 -3 17 -32 26 -63 9 -31 20 -61 24 -67
8 -12 38 -103 40 -125 6 -66 6 -116 -2 -121 -5 -3 -4 -17 2 -33 5 -15 6 -25 1
-21 -5 3 -12 1 -16 -5 -3 -5 0 -10 7 -10 8 0 7 -4 -4 -11 -11 -6 -15 -16 -11
-26 4 -11 3 -14 -5 -9 -7 4 -12 1 -12 -8 0 -11 -9 -16 -27 -16 -26 0 -26 -1
-8 -14 14 -10 26 -11 40 -5 20 10 20 10 0 -6 -12 -10 -30 -14 -45 -10 -24 5
-24 5 -5 -10 12 -10 30 -14 45 -10 l25 5 -22 -19 c-13 -11 -23 -24 -23 -29 0
-5 -10 -13 -22 -17 -13 -3 -18 -9 -11 -11 6 -3 26 2 43 11 40 21 52 12 13 -10
-21 -12 -22 -14 -6 -10 18 5 22 2 20 -15 -1 -11 -6 -20 -11 -20 -5 0 -7 -2 -5
-5 3 -2 19 -1 36 4 28 8 29 7 25 -15 -3 -15 0 -24 8 -24 10 0 10 -3 1 -14 -10
-11 -10 -20 -1 -36 9 -18 8 -25 -6 -41 -9 -10 -14 -22 -11 -26 4 -3 7 0 7 8 0
12 2 11 10 -1 6 -10 5 -17 -5 -23 -8 -4 -15 -14 -15 -22 0 -7 -10 -17 -22 -21
-13 -3 -34 -19 -48 -33 -35 -38 -78 -63 -85 -51 -3 6 -11 10 -17 10 -6 0 -5
-7 3 -17 10 -14 8 -13 -10 2 -56 47 -271 355 -286 410 -6 23 -9 26 -13 11 -2
-10 1 -28 7 -40 6 -11 22 -55 35 -96 13 -41 35 -102 49 -134 49 -116 9 -223
-96 -256 -23 -7 -46 -19 -52 -25 -5 -6 -29 -20 -52 -31 -24 -10 -45 -27 -48
-36 -7 -19 -39 -33 -55 -23 -20 13 -9 -14 12 -29 20 -14 100 -16 665 -16 393
0 643 4 643 9 0 6 -17 8 -37 5 -36 -4 -35 -4 8 9 25 7 62 23 82 35 38 22 51
20 20 -4 -16 -12 -15 -14 15 -20 19 -4 36 -13 39 -20 4 -12 346 -14 2109 -14
l2104 0 0 2250 0 2250 -1631 0 c-1132 0 -1628 -3 -1624 -10z m1675 -254 c5
-17 11 -60 12 -95 2 -60 1 -65 -22 -73 -27 -10 -102 -5 -162 12 -76 22 -83
104 -13 140 44 22 116 45 147 46 22 1 29 -4 38 -30z m-1125 -139 c65 -17 118
-55 129 -94 5 -16 -3 -31 -37 -65 -24 -25 -47 -52 -50 -62 -4 -9 -11 -15 -16
-12 -4 3 -18 -3 -30 -13 -14 -12 -17 -21 -10 -23 7 -2 14 -13 15 -24 2 -14 -3
-19 -21 -20 -19 -2 -25 4 -27 25 -2 14 -9 26 -17 26 -8 0 -16 6 -19 14 -3 9 0
11 8 6 9 -5 11 -4 6 3 -4 7 -12 12 -18 12 -5 0 -25 17 -44 38 -29 32 -33 43
-30 77 5 47 15 75 27 75 4 0 6 6 4 13 -11 26 66 41 130 24z m524 -1540 c-1
-64 -96 -247 -206 -393 -102 -137 -130 -171 -187 -231 -51 -54 -68 -65 -101
-70 -35 -4 -46 -1 -74 23 -33 28 -34 28 -28 99 4 59 14 89 65 195 64 131 142
243 165 234 7 -2 33 14 57 36 88 81 129 103 229 125 19 4 41 14 49 21 21 21
31 8 31 -39z m185 -734 c4 -9 3 -19 -1 -22 -4 -3 -17 -24 -28 -46 -21 -42
-168 -248 -201 -281 -10 -11 -48 -53 -84 -94 -131 -149 -180 -181 -221 -144
-20 18 -20 25 -3 118 17 90 171 263 334 375 47 32 103 70 124 84 45 31 71 34
80 10z m26 -903 c0 -5 -6 -7 -14 -4 -9 4 -16 -6 -20 -29 -4 -19 -13 -40 -21
-47 -8 -7 -15 -16 -15 -21 0 -10 -65 -101 -124 -172 -21 -26 -54 -56 -73 -68
-35 -22 -35 -22 -55 -2 -19 19 -19 22 -3 59 20 47 41 71 125 139 36 29 89 76
119 104 51 48 81 63 81 41z m-1298 -214 c71 -16 140 -53 158 -86 21 -39 18
-126 -7 -187 -23 -56 -67 -113 -87 -113 -5 0 -17 -7 -26 -15 -9 -8 -32 -17
-51 -19 -19 -3 -34 -5 -34 -6 0 -1 -24 -3 -53 -4 -28 -2 -55 -6 -59 -9 -3 -4
-12 -2 -20 4 -9 9 -13 8 -13 0 0 -6 -5 -11 -11 -11 -5 0 -8 4 -5 9 4 5 -7 12
-23 16 -21 4 -35 17 -49 45 -11 22 -17 42 -14 44 9 10 7 106 -2 106 -6 0 -5 5
2 12 7 7 12 31 12 55 0 84 36 135 112 158 56 18 88 18 170 1z m-1702 -116 c0
-5 -4 -10 -10 -10 -5 0 -10 5 -10 10 0 6 5 10 10 10 6 0 10 -4 10 -10z"/>
<path d="M4746 3840 c7 -7 8 -24 3 -48 -5 -20 -11 -50 -14 -65 -4 -18 -10 -25
-18 -21 -14 8 13 -19 107 -107 38 -35 62 -53 53 -39 -16 24 -16 26 3 27 11 1
33 11 49 22 38 27 39 27 80 -11 l35 -33 -31 40 c-45 59 -192 197 -238 224 -22
12 -35 18 -29 11z"/>
<path d="M4739 3599 c19 -42 51 -72 51 -48 0 7 9 4 21 -7 22 -19 22 -19 11 2
-6 11 -31 37 -56 58 l-45 37 18 -42z"/>
<path d="M4705 3502 c33 -34 61 -62 62 -62 12 0 -37 55 -75 86 -45 36 -44 34
13 -24z"/>
<path d="M4042 2413 c-1 -12 -16 -30 -34 -42 l-33 -20 -7 27 c-6 24 -6 23 -5
-8 2 -28 7 -36 30 -44 40 -14 59 8 54 65 -2 24 -4 34 -5 22z"/>
<path d="M2528 755 c9 -24 18 -43 20 -41 6 7 -21 86 -29 86 -4 0 -1 -20 9 -45z"/>
<path d="M2886 668 c5 -7 -3 -9 -22 -5 -16 3 -23 4 -16 1 6 -3 10 -10 6 -15
-7 -12 -2 -11 36 5 29 12 30 14 11 19 -13 3 -19 1 -15 -5z"/>
<path d="M2876 601 c-4 -5 3 -7 14 -4 23 6 26 13 6 13 -8 0 -17 -4 -20 -9z"/>
<path d="M2016 74 c-3 -9 -6 -29 -6 -45 0 -27 3 -29 35 -29 19 0 35 2 35 5 0
14 -41 85 -49 85 -5 0 -12 -7 -15 -16z"/>
</g>
</svg>
